<svg width="5" height="10" viewBox="0 0 5 10" fill="none" xmlns="http://www.w3.org/2000/svg">
<path d="M2.374 10C2.05667 9.33733 1.55267 8.72133 0.862 8.152V7.662C1.16067 7.802 1.422 7.942 1.646 8.082C1.87 8.21267 2.05667 8.34333 2.206 8.474V0.312H2.794V8.474C2.95267 8.34333 3.144 8.21267 3.368 8.082C3.592 7.942 3.84867 7.802 4.138 7.662V8.152C3.45667 8.72133 2.95267 9.33733 2.626 10H2.374Z" fill="white"/>
<path d="M2.374 10L1.92304 10.216L2.05906 10.5H2.374V10ZM0.862 8.152H0.362V8.38782L0.543964 8.53781L0.862 8.152ZM0.862 7.662L1.07422 7.20927L0.362 6.87542V7.662H0.862ZM1.646 8.082L1.381 8.506L1.38747 8.51004L1.39406 8.51389L1.646 8.082ZM2.206 8.474L1.87675 8.85029L2.706 9.57588V8.474H2.206ZM2.206 0.312V-0.188H1.706V0.312H2.206ZM2.794 0.312H3.294V-0.188H2.794V0.312ZM2.794 8.474H2.294V9.53349L3.11185 8.85996L2.794 8.474ZM3.368 8.082L3.61994 8.51389L3.62653 8.51004L3.633 8.506L3.368 8.082ZM4.138 7.662H4.638V6.86461L3.92022 7.21192L4.138 7.662ZM4.138 8.152L4.45861 8.53568L4.638 8.38578V8.152H4.138ZM2.626 10V10.5H2.93697L3.07447 10.2211L2.626 10ZM2.82496 9.78405C2.47011 9.04304 1.91483 8.3719 1.18004 7.76619L0.543964 8.53781C1.1905 9.07077 1.64322 9.63162 1.92304 10.216L2.82496 9.78405ZM1.362 8.152V7.662H0.362V8.152H1.362ZM0.649783 8.11473C0.934545 8.24821 1.17757 8.37885 1.381 8.506L1.911 7.658C1.66643 7.50515 1.38679 7.35579 1.07422 7.20927L0.649783 8.11473ZM1.39406 8.51389C1.59843 8.6331 1.75735 8.74581 1.87675 8.85029L2.53525 8.09771C2.35599 7.94085 2.14157 7.79223 1.89794 7.65011L1.39406 8.51389ZM2.706 8.474V0.312H1.706V8.474H2.706ZM2.206 0.812H2.794V-0.188H2.206V0.812ZM2.294 0.312V8.474H3.294V0.312H2.294ZM3.11185 8.85996C3.24528 8.75008 3.41341 8.63436 3.61994 8.51389L3.11606 7.65011C2.87459 7.79097 2.66005 7.93658 2.47615 8.08803L3.11185 8.85996ZM3.633 8.506C3.8389 8.37731 4.07931 8.24585 4.35578 8.11208L3.92022 7.21192C3.61802 7.35815 3.3451 7.50669 3.103 7.658L3.633 8.506ZM3.638 7.662V8.152H4.638V7.662H3.638ZM3.81739 7.76832C3.09316 8.3735 2.54059 9.04244 2.17753 9.77892L3.07447 10.2211C3.36475 9.63223 3.82017 9.06917 4.45861 8.53568L3.81739 7.76832ZM2.626 9.5H2.374V10.5H2.626V9.5Z" fill="white"/>
</svg>
